<svg xmlns="http://www.w3.org/2000/svg" width="33" height="32" fill="none"><rect width="32" height="32" x=".9" fill="#007FA5" rx="16"/><path fill="#fff" d="M16.88 24.5c-2.165 0-4.052-.713-5.66-2.139C9.61 20.936 8.683 19.15 8.44 17h1.531c.253 1.727 1.03 3.159 2.332 4.295C13.605 22.432 15.13 23 16.88 23c1.95 0 3.604-.68 4.962-2.038 1.359-1.358 2.038-3.012 2.038-4.962 0-1.95-.68-3.604-2.038-4.963C20.485 9.68 18.831 9 16.881 9a6.685 6.685 0 0 0-3.071.728 7.557 7.557 0 0 0-2.468 2.003h2.616v1.5H8.88V8.154h1.5v2.37a8.49 8.49 0 0 1 2.915-2.23 8.369 8.369 0 0 1 3.585-.794c1.18 0 2.284.223 3.315.67a8.607 8.607 0 0 1 2.696 1.818 8.604 8.604 0 0 1 1.82 2.697c.446 1.03.669 2.135.669 3.315 0 1.18-.223 2.285-.67 3.315a8.606 8.606 0 0 1-1.819 2.697 8.605 8.605 0 0 1-2.696 1.819 8.255 8.255 0 0 1-3.315.669Zm3.003-4.473-3.723-3.723V11h1.5v4.696l3.276 3.277-1.053 1.054Z"/></svg>