<svg xmlns="http://www.w3.org/2000/svg" width="25" height="24" fill="none"><path fill="#007FA5" d="M12.88 20.5c-2.165 0-4.052-.713-5.66-2.139C5.61 16.936 4.683 15.15 4.44 13h1.531c.253 1.727 1.03 3.159 2.332 4.295C9.605 18.432 11.13 19 12.88 19c1.95 0 3.604-.68 4.962-2.038 1.359-1.358 2.038-3.012 2.038-4.962 0-1.95-.68-3.604-2.038-4.963C16.485 5.68 14.831 5 12.881 5a6.685 6.685 0 0 0-3.071.728A7.558 7.558 0 0 0 7.342 7.73h2.616v1.5H4.88V4.154h1.5v2.37a8.488 8.488 0 0 1 2.915-2.23 8.369 8.369 0 0 1 3.585-.794c1.18 0 2.284.223 3.315.67a8.605 8.605 0 0 1 2.696 1.818 8.607 8.607 0 0 1 1.82 2.697c.446 1.03.669 2.135.669 3.315 0 1.18-.223 2.285-.67 3.315a8.607 8.607 0 0 1-1.819 2.697 8.604 8.604 0 0 1-2.696 1.819 8.255 8.255 0 0 1-3.315.669Zm3.003-4.473-3.723-3.723V7h1.5v4.696l3.276 3.277-1.053 1.054Z"/></svg>