<svg xmlns="http://www.w3.org/2000/svg" width="18" height="18" fill="none"><path fill="#007FA5" d="M8.88 17.5c-2.165 0-4.052-.713-5.66-2.139C1.61 13.936.683 12.15.44 10h1.531c.253 1.727 1.03 3.159 2.332 4.295C5.605 15.432 7.13 16 8.88 16c1.95 0 3.604-.68 4.962-2.037 1.359-1.359 2.038-3.013 2.038-4.963 0-1.95-.68-3.604-2.038-4.963C12.485 2.68 10.831 2 8.881 2a6.685 6.685 0 0 0-3.071.728A7.558 7.558 0 0 0 3.342 4.73h2.616v1.5H.88V1.154h1.5v2.37a8.488 8.488 0 0 1 2.915-2.23A8.368 8.368 0 0 1 8.881.5c1.18 0 2.284.223 3.315.67a8.607 8.607 0 0 1 2.696 1.818 8.605 8.605 0 0 1 1.82 2.697c.446 1.03.669 2.135.669 3.315 0 1.18-.223 2.285-.67 3.315a8.606 8.606 0 0 1-1.819 2.697 8.605 8.605 0 0 1-2.696 1.819 8.255 8.255 0 0 1-3.315.669Zm3.003-4.473L8.16 9.304V4h1.5v4.696l3.277 3.277-1.054 1.054Z"/></svg>