<svg xmlns="http://www.w3.org/2000/svg" width="107" height="78" fill="none"><path stroke="#A6D5E3" stroke-linecap="round" stroke-linejoin="round" stroke-width="4" d="M11.697 60.023h13.377M11.697 66.75h13.377M9.189 76h88.623c3.693 0 6.688-3.012 6.688-6.727V8.727C104.5 5.012 101.505 2 97.811 2H9.19C5.495 2 2.5 5.012 2.5 8.727v60.546C2.5 72.988 5.495 76 9.189 76Zm78.59-55.5h7.524c.924 0 1.672-.753 1.672-1.682V11.25c0-.929-.748-1.682-1.672-1.682H87.78c-.924 0-1.672.753-1.672 1.682v7.568c0 .929.748 1.682 1.672 1.682ZM68.549 39c0 8.36-6.738 15.136-15.049 15.136S38.45 47.36 38.45 39 45.19 23.864 53.5 23.864 68.55 30.64 68.55 39Zm6.689 0c0 12.075-9.733 21.864-21.738 21.864-12.005 0-21.738-9.789-21.738-21.864 0-12.075 9.733-21.864 21.738-21.864 12.005 0 21.738 9.789 21.738 21.864Z"/></svg>