<svg xmlns="http://www.w3.org/2000/svg" width="161" height="160" fill="none"><g clip-path="url(#a)"><path fill="#A6D5E3" d="m66.964 87.16-1.172-1.62-.007.004 1.179 1.616Zm42.796-16.392.05 2h.002l-.052-2Zm1.949.663-1.273 1.542.004.004 1.269-1.546Zm46.011 9.072 1.899.628.013-.039.011-.04-1.923-.55Zm-.011.033-1.898-.629-.012.037-.011.037 1.921.555ZM152.49 91.82l-1.676-1.09h-.001l1.677 1.09Zm-19.037 17.693v2h.551l.473-.282-1.024-1.718Zm-.015.007 1.02 1.721.509-.302.263-.53-1.792-.889ZM2.08 118.747l1.843.776.001-.001-1.844-.775ZM6 109.411l-1.842-.777-.001.002 1.844.775Zm1.325-.899-.024-2H7.3l.025 2ZM159.03 73.749l1.989.202.011-.1v-.102h-2ZM39.664 104.94l.323 1.974-.323-1.974Zm-2.816.454.313 1.975-.313-1.975Zm-22.252 2.77-1.914-.579-.846 2.796 2.912-.222-.152-1.995Zm1.81-5.983 1.915.579.002-.006-1.917-.573Zm1.266-1.039-.185-1.992.185 1.992Zm19.176-2.476.308 1.976h.001l-.309-1.976Zm120.364-26.51.502 1.936h.002l-.504-1.936Zm1.818 1.588-1.99-.206-.01.103v.103h2ZM22.004 86.915a2 2 0 1 0 .977 3.88l-.977-3.88Zm12.639-1.118.488 1.94-.488-1.94Zm2.048.24.92-1.776-.92 1.776Zm17.392 11.266a2 2 0 0 0 1.841-3.551l-1.84 3.551ZM27.373 87.78l4 12.063 3.797-1.26-4.001-12.062-3.796 1.259Zm40.985 5.542v-4.963h-4v4.963h4Zm0-4.963c0 .158-.079.319-.215.418l-2.357-3.232a3.475 3.475 0 0 0-1.428 2.814h4Zm-.221.423c1.755-1.269 7.388-5.171 15.009-8.81 7.642-3.65 17.143-6.967 26.665-7.204l-.1-3.998c-10.316.256-20.4 3.825-28.289 7.592-7.91 3.777-13.756 7.824-15.63 9.179l2.345 3.241Zm41.676-16.014a.933.933 0 0 1 .624.206l2.547-3.084a4.93 4.93 0 0 0-3.275-1.12l.104 3.998Zm.628.21 11.279 9.266 2.54-3.09-11.28-9.267-2.539 3.09Zm45.672 5.813c-.094.38-.2.762-.314 1.162l3.845 1.1c.12-.417.241-.852.351-1.298l-3.882-.964Zm-.29 1.084a3.055 3.055 0 0 1-.006.017l-.005.016 3.797 1.257a3.055 3.055 0 0 1 .011-.033l-3.797-1.257Zm-.034.107c-1.083 3.75-2.763 7.351-4.974 10.75l3.352 2.181c2.412-3.706 4.265-7.665 5.465-11.822l-3.843-1.109Zm-4.975 10.75c-3.78 5.815-9.117 11.036-15.66 15.356l2.204 3.338c6.938-4.581 12.69-10.177 16.81-16.514l-3.354-2.18Zm-15.656 15.354a73.419 73.419 0 0 1-2.728 1.711l2.048 3.436c.987-.588 1.94-1.19 2.876-1.804l-2.196-3.343Zm-1.704 1.429h-.015a2.002 2.002 0 0 0-.629.105 2.01 2.01 0 0 0-1.162 1.013l3.583 1.778a1.99 1.99 0 0 1-1.148 1.001c-.344.115-.646.103-.629.103v-4Zm-1.034.287c-11.564 6.853-26.346 10.995-42.49 10.995v4c16.81 0 32.305-4.31 44.529-11.554l-2.039-3.441Zm-42.49 10.995H3.426v4h86.503v-4Zm-86.503 0c.405 0 .635.401.497.727l-3.686-1.552c-.957 2.272.692 4.825 3.189 4.825v-4Zm4.418-8.608a.544.544 0 0 1-.494.324l-.05-4a3.458 3.458 0 0 0-3.142 2.122l3.686 1.554Zm-.496.324c2.254-.027 4.735-.147 7.398-.353l-.307-3.988c-2.597.2-4.988.316-7.138.341l.047 4ZM157.04 73.547a35.836 35.836 0 0 1-.925 5.231l3.876.988a39.768 39.768 0 0 0 1.028-5.815l-3.979-.404Zm.533 3.783c-20.557 5.08-78.947 19.198-118.232 25.638l.647 3.947c39.467-6.47 98.007-20.627 118.545-25.702l-.96-3.883ZM39.342 102.968c-.944.154-1.881.304-2.807.451l.626 3.951c.932-.148 1.875-.299 2.826-.455l-.645-3.947Zm-2.806.451c-8.24 1.304-15.758 2.268-22.093 2.752l.305 3.989c6.482-.496 14.114-1.477 22.413-2.79l-.625-3.951Zm-20.026 5.326 1.81-5.984-3.828-1.158-1.81 5.983 3.828 1.159Zm1.813-5.99a.537.537 0 0 1-.465.379l-.372-3.983a3.462 3.462 0 0 0-2.996 2.458l3.833 1.146Zm-.466.379c4.763-.442 10.056-1.107 15.707-1.943l-.586-3.957c-5.6.829-10.818 1.483-15.491 1.917l.37 3.983Zm15.705-1.943c1.187-.175 2.386-.36 3.594-.548l-.616-3.952c-1.206.188-2.391.37-3.56.542l.582 3.958Zm3.595-.548c42.956-6.72 104.647-22.422 120.557-26.55l-1.004-3.872c-15.932 4.133-77.44 19.785-120.171 26.47l.618 3.952Zm120.559-26.55a.533.533 0 0 1-.676-.554l3.979.412c.245-2.367-1.925-4.35-4.311-3.73l1.008 3.872Zm-.686-.348v.004h4v-.004h-4Zm-20.007 32.011h-.768v4h.768v-4ZM22.981 90.795l12.15-3.058-.977-3.88-12.15 3.059.977 3.879Zm12.15-3.058a.906.906 0 0 1 .64.075l1.84-3.551a4.906 4.906 0 0 0-3.457-.403l.977 3.879Zm.64.075 18.313 9.491 1.84-3.551-18.313-9.491-1.84 3.551Zm-31.847 31.71 3.92-9.337-3.687-1.549-3.92 9.337 3.687 1.549Z"/><path stroke="#A6D5E3" stroke-linecap="round" stroke-miterlimit="10" stroke-width="4" d="m61.89 50.677-13.773 13.88m13.774 0-13.774-13.88m25.887 6.938c0 10.57-8.507 19.14-19 19.14-10.494 0-19-8.57-19-19.14 0-10.572 8.506-19.141 19-19.141 10.493 0 19 8.57 19 19.14Z"/></g><defs><clipPath id="a"><path fill="#fff" d="M.5 0h160v160H.5z"/></clipPath></defs></svg>