<svg xmlns="http://www.w3.org/2000/svg" width="8" height="18" fill="none"><path fill="#000" d="M4 17.277a.828.828 0 0 1-.633-.256l-2.51-2.51a.705.705 0 0 1-.217-.516c0-.2.078-.376.233-.531a.698.698 0 0 1 .527-.218.73.73 0 0 1 .537.217l1.313 1.314V3.223L1.912 4.562a.69.69 0 0 1-.507.207.732.732 0 0 1-.532-.232A.747.747 0 0 1 .665 4c0-.213.073-.392.218-.536L3.367.979A.829.829 0 0 1 4 .723a.829.829 0 0 1 .633.256l2.51 2.51a.705.705 0 0 1 .217.516c0 .2-.078.376-.233.532a.697.697 0 0 1-.527.217.729.729 0 0 1-.537-.217L4.75 3.223v11.554l1.338-1.338a.69.69 0 0 1 .507-.208c.2 0 .377.077.532.232a.747.747 0 0 1 .208.537.729.729 0 0 1-.218.537L4.633 17.02a.828.828 0 0 1-.633.256Z"/></svg>