<svg xmlns="http://www.w3.org/2000/svg" width="17" height="18" fill="none"><path fill="#000" d="M0 18V2C0 1.45.196.98.588.587A1.926 1.926 0 0 1 2 0h6c.55 0 1.02.196 1.412.588C9.804.979 10 1.45 10 2v7h1c.55 0 1.02.196 1.412.588.392.391.588.862.588 1.412v4.5c0 .283.096.52.287.712.192.192.43.288.713.288s.52-.096.713-.288A.968.968 0 0 0 15 15.5V8.3c-.15.083-.308.137-.475.162A3.539 3.539 0 0 1 14 8.5c-.7 0-1.292-.242-1.775-.725C11.742 7.292 11.5 6.7 11.5 6c0-.533.146-1.013.438-1.438.291-.425.679-.729 1.162-.912L11 1.55 12.05.5l3.7 3.6c.25.25.438.542.563.875.125.333.187.675.187 1.025v9.5c0 .7-.242 1.292-.725 1.775C15.292 17.758 14.7 18 14 18s-1.292-.242-1.775-.725c-.483-.483-.725-1.075-.725-1.775v-5H10V18H0ZM2 7h6V2H2v5Zm12 0c.283 0 .52-.096.713-.287A.967.967 0 0 0 15 6a.967.967 0 0 0-.287-.713A.968.968 0 0 0 14 5a.968.968 0 0 0-.713.287A.967.967 0 0 0 13 6c0 .283.096.52.287.713.192.191.43.287.713.287ZM2 16h6V9H2v7Z"/></svg>