<svg xmlns="http://www.w3.org/2000/svg" width="112" height="113" fill="none"><path fill="#A6D5E3" d="M89.359 35.828h2-2Zm-32.1 48.862-1.15 1.636a2 2 0 0 0 2.3 0l-1.15-1.636Zm-32.1-48.862h-2 2ZM57.259 2v2-2ZM2.637 102.135l1.917.571-1.917-.571Zm8.215-27.583-1.917-.571 1.917.57Zm3.926-2.323-.395 1.96.395-1.96Zm24.024 4.843.395-1.96-.395 1.96Zm38.4-2.415.239-1.985-.238 1.985Zm27.326 3.275-.238 1.986.238-1.986Zm2.963 3.051 1.994-.152-1.994.152Zm1.999 26.195 1.994-.152-1.994.152Zm-4.006 3.514-.368 1.966.368-1.966Zm-25.188-4.715-.368 1.966.368-1.966Zm-12.005-.115.33 1.972-.33-1.972Zm-27.901 4.667.33 1.972-.33-1.972Zm-11.652-.052.348-1.969-.348 1.969Zm-23.452-4.136-.347 1.969.347-1.969ZM34.664 111l-.003 2 .003-2Zm39.64-5.608-.02 2 .02-2Zm-2.639-73.453c0 7.95-6.448 14.396-14.406 14.396v4c10.164 0 18.406-8.235 18.406-18.396h-4ZM57.26 46.335c-7.958 0-14.407-6.447-14.407-14.396h-4c0 10.161 8.242 18.396 18.407 18.396v-4ZM42.852 31.939c0-7.949 6.449-14.395 14.407-14.395v-4c-10.165 0-18.407 8.235-18.407 18.395h4ZM57.26 17.544c7.958 0 14.406 6.446 14.406 14.395h4c0-10.16-8.242-18.395-18.406-18.395v4Zm30.1 18.284c0 12.39-7.6 24.13-15.537 32.96-3.935 4.376-7.875 7.952-10.833 10.435a96.696 96.696 0 0 1-3.562 2.855 61.61 61.61 0 0 1-1.302.964l-.014.01-.002.001 1.15 1.637 1.15 1.635.003-.001.006-.004.02-.015a16.12 16.12 0 0 0 .36-.26c.246-.179.601-.442 1.051-.784.9-.685 2.18-1.689 3.711-2.974 3.06-2.568 7.145-6.274 11.236-10.825C82.908 62.44 91.36 49.748 91.36 35.828h-4Zm-30.1 48.862 1.15-1.636s-.001-.002-.003-.002l-.014-.01a96.769 96.769 0 0 1-4.864-3.819c-2.957-2.483-6.898-6.059-10.832-10.435-7.938-8.83-15.537-20.57-15.537-32.96h-4c0 13.92 8.45 26.61 16.563 35.634 4.09 4.55 8.175 8.257 11.236 10.825a100.582 100.582 0 0 0 3.71 2.974A65.064 65.064 0 0 0 56.1 86.32l.006.004.002.001s.001.001 1.15-1.635Zm-30.1-48.862c0-8.475 3.195-16.582 8.852-22.543L33.11 10.53c-6.383 6.726-9.951 15.827-9.951 25.297h4Zm8.852-22.543C41.665 7.326 49.311 4 57.26 4V0c-9.079 0-17.763 3.802-24.15 10.531l2.902 2.754ZM57.26 4c7.948 0 15.593 3.326 21.247 9.285l2.902-2.754C75.022 3.801 66.338 0 57.258 0v4Zm21.247 9.285c5.657 5.961 8.853 14.069 8.853 22.543h4c0-9.47-3.569-18.57-9.951-25.297l-2.902 2.754ZM4.554 102.706l8.215-27.583-3.834-1.142-8.214 27.583 3.833 1.142Zm9.83-28.516 24.023 4.843.79-3.921-24.023-4.843-.79 3.92Zm62.58 2.453 27.326 3.275.476-3.972-27.325-3.274-.476 3.971Zm28.533 4.492 1.999 26.195 3.988-.304-1.999-26.195-3.988.304Zm.355 27.591-25.188-4.715-.736 3.932 25.188 4.715.736-3.932Zm-37.891-4.837-27.901 4.667.66 3.945 27.9-4.667-.66-3.945Zm-38.876 4.619-23.451-4.137-.695 3.939 23.452 4.137.695-3.939Zm10.975.048a32.311 32.311 0 0 1-5.393.444l-.006 4a36.334 36.334 0 0 0 6.059-.499l-.66-3.945Zm-5.393.444a32.488 32.488 0 0 1-5.582-.492l-.694 3.939c2.073.366 4.172.55 6.27.553l.006-4Zm45.997-4.989a36.428 36.428 0 0 0-6.34-.619l-.04 4c1.89.018 3.78.202 5.644.551l.736-3.932Zm-6.34-.619a36.417 36.417 0 0 0-6.363.497l.66 3.945a32.415 32.415 0 0 1 5.663-.442l.04-4Zm33.172 3.938c.063.824-.702 1.573-1.644 1.396l-.736 3.932c3.432.643 6.639-2.093 6.368-5.632l-3.988.304Zm-3.206-27.412c.678.081 1.161.612 1.207 1.217l3.988-.304c-.195-2.558-2.194-4.582-4.719-4.885l-.476 3.972Zm-35.02-3.282c1.373-.205 1.85-.198 3.371-.22l-.057-4c-1.536.023-2.244.016-3.902.263l.589 3.957Zm3.371-.22c1.443-.02 2.888.055 4.324.227l.476-3.971a36.404 36.404 0 0 0-4.857-.255l.057 4Zm-34.234 2.617c2.22.447 4.117.825 6.119.936l.22-3.994c-1.667-.092-3.282-.407-5.549-.863l-.79 3.92Zm6.119.936c1.518.084 2.776.014 4.562-.252L48.5 75.76c-1.569.234-2.551.282-3.752.215l-.221 3.994Zm-31.757-4.846c.192-.645.88-1.081 1.614-.933l.79-3.921c-2.713-.547-5.44 1.036-6.238 3.712l3.834 1.142ZM.721 101.564c-.916 3.076 1.095 6.195 4.218 6.746l.695-3.939c-.837-.148-1.294-.947-1.08-1.665l-3.833-1.142Zm35.858 10.014L46.55 78.55l-3.83-1.156-9.971 33.028 3.829 1.156Zm34.037-37.053 1.69 30.976 3.995-.218-1.691-30.976-3.994.218Z"/></svg>