<svg xmlns="http://www.w3.org/2000/svg" width="18" height="18" fill="none"><path fill="#0187AE" d="M2 18c-.55 0-1.02-.196-1.413-.587A1.926 1.926 0 0 1 0 16V6c0-.55.196-1.02.588-1.412A1.926 1.926 0 0 1 2 4h2V2c0-.55.196-1.02.588-1.413A1.926 1.926 0 0 1 6 0h6c.55 0 1.02.196 1.412.588C13.804.979 14 1.45 14 2v6h2c.55 0 1.02.196 1.413.588.391.391.587.862.587 1.412v6c0 .55-.196 1.02-.587 1.413A1.926 1.926 0 0 1 16 18h-6v-4H8v4H2Zm0-2h2v-2H2v2Zm0-4h2v-2H2v2Zm0-4h2V6H2v2Zm4 4h2v-2H6v2Zm0-4h2V6H6v2Zm0-4h2V2H6v2Zm4 8h2v-2h-2v2Zm0-4h2V6h-2v2Zm0-4h2V2h-2v2Zm4 12h2v-2h-2v2Zm0-4h2v-2h-2v2Z"/></svg>