<svg xmlns="http://www.w3.org/2000/svg" width="25" height="24" fill="none"><path stroke="#007FA5" stroke-linecap="round" stroke-linejoin="round" stroke-width="1.5" d="M19.625 10.364c0 5.727-7 10.636-7 10.636s-7-4.91-7-10.636c0-1.953.737-3.826 2.05-5.207C8.988 3.776 10.768 3 12.625 3c1.857 0 3.637.776 4.95 2.157 1.313 1.38 2.05 3.254 2.05 5.207Z"/><path stroke="#007FA5" stroke-linecap="round" stroke-linejoin="round" stroke-width="1.5" d="M12.625 13.5c1.546 0 2.8-1.343 2.8-3s-1.254-3-2.8-3c-1.546 0-2.8 1.343-2.8 3s1.254 3 2.8 3Z"/></svg>