<svg xmlns="http://www.w3.org/2000/svg" width="33" height="32" fill="none"><rect width="32" height="32" x=".625" fill="#007FA5" rx="16"/><path stroke="#fff" stroke-linecap="round" stroke-linejoin="round" stroke-width="1.5" d="M23.625 14.364c0 5.727-7 10.636-7 10.636s-7-4.91-7-10.636c0-1.953.738-3.826 2.05-5.207C12.988 7.776 14.768 7 16.625 7c1.857 0 3.637.776 4.95 2.157 1.313 1.38 2.05 3.254 2.05 5.207Z"/><path stroke="#fff" stroke-linecap="round" stroke-linejoin="round" stroke-width="1.5" d="M16.625 17.5c1.546 0 2.8-1.343 2.8-3s-1.254-3-2.8-3c-1.546 0-2.8 1.343-2.8 3s1.254 3 2.8 3Z"/></svg>