<svg xmlns="http://www.w3.org/2000/svg" width="107" height="106" fill="none"><path fill="#A6D5E3" d="m26.147 25.658-1.414-1.414 1.414 1.414Zm.153 54.836-1.407 1.422a2 2 0 0 0 2.82-.006L26.3 80.494Zm54.4 0-1.425 1.403a2 2 0 0 0 2.832.019L80.7 80.494ZM51.5 21.975a2 2 0 1 0 4 0h-4ZM22.475 55a2 2 0 1 0 0-4v4Zm62.05-4a2 2 0 1 0 0 4v-4ZM30.2 32.528a2 2 0 1 0 2.825-2.831L30.2 32.528ZM76.715 73.6a2 2 0 0 0-2.85 2.807l2.85-2.807Zm-43.593 2.916a2 2 0 0 0-2.825-2.832l2.825 2.832ZM58.03 57.668l-1.395-1.434 1.395 1.434Zm-8.89-9.14-1.395-1.433 1.395 1.434Zm32.046-21.757 1.713 1.032-1.713-1.032Zm-.58-.568-1.055-1.699 1.056 1.699ZM45.906 79.35v-2h-.04l.04 2Zm-.433.008-.039-2-.027.001-.028.002.094 1.997Zm0 12.309-.094 1.997.028.002h.027l.04-2Zm.432.008-.038 2h.038v-2ZM102.5 53c0 27.062-21.938 49-49 49v4c29.271 0 53-23.729 53-53h-4Zm-49 49c-27.062 0-49-21.938-49-49h-4c0 29.271 23.729 53 53 53v-4Zm-49-49c0-27.062 21.938-49 49-49V0C24.229 0 .5 23.729.5 53h4Zm49-49c27.062 0 49 21.938 49 49h4c0-29.271-23.729-53-53-53v4ZM16.825 53c0-10.126 4.1-19.29 10.737-25.928l-2.83-2.828C17.379 31.602 12.826 41.771 12.826 53h4Zm10.737-25.928c6.64-6.642 15.807-10.747 25.938-10.747v-4c-11.234 0-21.408 4.557-28.767 11.92l2.829 2.827ZM53.5 16.325c20.255 0 36.675 16.42 36.675 36.675h4c0-22.464-18.21-40.675-40.675-40.675v4ZM27.707 79.072C20.985 72.422 16.825 63.2 16.825 53h-4c0 11.31 4.619 21.545 12.068 28.916l2.814-2.844ZM90.175 53c0 10.199-4.16 19.422-10.882 26.072l2.814 2.844C89.557 74.546 94.175 64.31 94.175 53h-4ZM51.5 14.325v7.65h4v-7.65h-4ZM14.825 55h7.65v-4h-7.65v4Zm69.7 0h7.65v-4h-7.65v4Zm-59.79-27.926 5.465 5.454 2.825-2.831-5.465-5.454-2.826 2.83Zm57.39 52.016-5.41-5.49-2.85 2.807 5.41 5.49 2.85-2.807Zm-54.413 2.82 5.41-5.394-2.825-2.832-5.41 5.394 2.825 2.832Zm51.76-56.17c-1.492 2.478-6.168 9.1-11.052 15.68-4.913 6.621-9.82 12.902-11.785 14.814l2.79 2.868c2.25-2.19 7.372-8.782 12.207-15.297 4.865-6.556 9.659-13.331 11.267-16.002l-3.427-2.063ZM56.635 56.234a4.372 4.372 0 0 1-6.181-.09l-2.868 2.789c3.224 3.314 8.524 3.393 11.838.169l-2.789-2.867Zm-6.181-.09a4.372 4.372 0 0 1 .08-6.182l-2.789-2.867c-3.314 3.224-3.382 8.524-.159 11.838l2.868-2.789Zm.08-6.182c1.96-1.906 8.391-6.59 15.16-11.31 6.7-4.671 13.479-9.204 15.968-10.75l-2.11-3.398c-2.585 1.606-9.434 6.188-16.146 10.867-6.643 4.631-13.409 9.533-15.66 11.724l2.788 2.867ZM82.9 27.803c1.325-2.2-1.207-4.629-3.348-3.299l2.111 3.398c-1.386.86-3.057-.722-2.19-2.162l3.427 2.063ZM45.511 81.358l.432-.008-.077-4-.433.009.078 3.999Zm-4.461 4.154c0-2.058 1.829-4.03 4.516-4.156l-.188-3.995c-4.468.21-8.328 3.62-8.328 8.151h4Zm4.516 4.157c-2.687-.127-4.516-2.098-4.516-4.156h-4c0 4.53 3.86 7.94 8.328 8.151l.188-3.995Zm.377.006-.432-.008-.078 4 .433.008.077-4Zm20.007-4.162c0 2.123-1.956 4.162-4.779 4.162v4c4.665 0 8.779-3.48 8.779-8.162h-4Zm-4.779-4.163c2.823 0 4.779 2.039 4.779 4.163h4c0-4.684-4.114-8.163-8.779-8.163v4Zm-15.267 0h15.267v-4H45.904v4Zm15.267 8.325H45.904v4h15.267v-4Z"/></svg>