<svg xmlns="http://www.w3.org/2000/svg" width="33" height="32" fill="none"><rect width="32" height="32" x=".125" fill="#007FA5" rx="16"/><path fill="#fff" d="m8.342 12.184.658.36-.658-.36Zm.753-1.371-.658-.361.658.36Zm2.218-.626.39-.641-.39.64Zm2.432-1.483h-.75.75ZM15.371 7l-.004.75.003-.75Zm1.703.007-.003.75h.014l-.01-.75ZM18.506 8.5h.75V8.49l-.75.01Zm0 .198.75.002v-.003h-.75Zm2.436 1.48.388.642-.388-.642Zm.162-.098-.38-.646-.009.004.39.642Zm1.944.558-.662.352.006.011.656-.363Zm.858 1.55-.656.363.656-.363Zm-.589 2.333.389.642-.389-.642Zm-.004 2.96-.39.64.39-.64Zm.595 2.335-.658-.36.658.36Zm-.753 1.371-.657-.36.657.36Zm-2.218.626.39-.64-.39.64Zm-2.432 1.483.75.003v-.004l-.75.001ZM16.88 25l.003-.75-.003.75Zm-1.704-.007.003-.75h-.014l.01.75ZM13.744 23.5h-.75v.009l.75-.01Zm0-.198-.75-.002v.003h.75Zm-2.435-1.48-.389-.642.389.642Zm-.163.098.38.646.008-.004-.388-.642Zm-1.944-.558.662-.352-.006-.011-.656.363Zm-.858-1.55L9 19.45l-.656.363Zm.589-2.333-.389-.642.389.642Zm.004-2.96-.39.642.39-.641ZM9 12.546l.752-1.372-1.315-.721-.752 1.371L9 12.545Zm.752-1.372c.25-.455.778-.585 1.172-.345l.779-1.282c-1.162-.706-2.627-.26-3.266.906l1.315.721Zm1.172-.345c.81.492 1.734.641 2.499.175.75-.457 1.074-1.34 1.072-2.3l-1.5.002c.001.673-.22.937-.352 1.017-.117.071-.411.145-.94-.176l-.78 1.282Zm3.571-2.125c0-.559.43-.955.872-.953l.007-1.5c-1.35-.006-2.379 1.142-2.379 2.454h1.5Zm.873-.953 1.703.007.006-1.5-1.704-.007-.005 1.5Zm1.717.007c.319-.005.665.286.67.753l1.5-.019c-.014-1.188-.939-2.251-2.191-2.234l.02 1.5Zm.67.744.001.198 1.5-.002v-.198l-1.5.002Zm.001.195c-.003.958.32 1.842 1.072 2.299.765.465 1.69.317 2.502-.175l-.777-1.283c-.532.322-.828.248-.946.176-.131-.08-.353-.343-.351-1.013l-1.5-.004Zm3.574 2.124.163-.099-.778-1.283-.162.099.777 1.283Zm.155-.094a.64.64 0 0 1 .901.264l1.325-.704a2.139 2.139 0 0 0-2.988-.852l.762 1.292Zm.907.275.858 1.55 1.312-.726-.857-1.55-1.313.726Zm.858 1.55c.264.476.09 1.079-.322 1.33l.778 1.281c1.127-.684 1.495-2.184.856-3.338l-1.312.727Zm-.321 1.329c-.819.495-1.37 1.242-1.37 2.12-.001.878.549 1.625 1.365 2.121l.779-1.282c-.524-.318-.645-.644-.645-.838 0-.194.121-.52.648-.838l-.777-1.283Zm-.005 4.241c.414.252.589.855.326 1.334l1.315.722c.635-1.158.263-2.654-.862-3.338l-.78 1.282Zm.326 1.334-.752 1.372 1.315.721.752-1.371-1.315-.722Zm-.752 1.372c-.25.455-.778.584-1.172.345l-.779 1.282c1.162.706 2.627.26 3.266-.906l-1.315-.721Zm-1.172.345c-.81-.492-1.734-.641-2.499-.175-.75.456-1.074 1.34-1.072 2.3l1.5-.002c-.002-.673.22-.937.352-1.017.117-.071.411-.145.94.176l.78-1.282Zm-3.571 2.121c-.003.57-.43.959-.872.957l-.007 1.5c1.35.006 2.373-1.134 2.379-2.45l-1.5-.007Zm-.872.957-1.704-.007-.006 1.5 1.703.007.006-1.5Zm-1.718-.007c-.319.005-.665-.286-.67-.753l-1.5.019c.014 1.188.939 2.251 2.191 2.234l-.02-1.5Zm-.67-.744-.001-.198-1.5.002v.197l1.5-.001Zm-.001-.195c.003-.958-.32-1.842-1.072-2.299-.765-.465-1.69-.317-2.502.175l.777 1.283c.532-.322.828-.248.946-.176.131.08.353.343.351 1.013l1.5.004ZM10.92 21.18l-.163.099.777 1.283.163-.099-.777-1.283Zm-.155.094a.639.639 0 0 1-.901-.264l-1.325.704a2.139 2.139 0 0 0 2.988.852l-.762-1.292ZM9.858 21 9 19.449l-1.312.726.857 1.55L9.858 21ZM9 19.449c-.264-.476-.09-1.079.322-1.33l-.779-1.281c-1.126.684-1.494 2.184-.855 3.338L9 19.449Zm.321-1.329c.819-.495 1.37-1.242 1.37-2.12.001-.878-.549-1.625-1.365-2.121l-.779 1.282c.524.318.645.644.645.838 0 .194-.121.52-.648.838l.777 1.283Zm.005-4.241c-.418-.254-.587-.858-.326-1.334l-1.315-.722c-.628 1.146-.274 2.647.862 3.338l.78-1.282Zm6.795-.054c1.084 0 2.028.937 2.028 2.175h1.5c0-1.993-1.544-3.675-3.528-3.675v1.5ZM18.149 16c0 1.238-.944 2.175-2.028 2.175v1.5c1.984 0 3.528-1.682 3.528-3.675h-1.5Zm-2.028 2.175c-1.084 0-2.028-.937-2.028-2.175h-1.5c0 1.993 1.543 3.675 3.528 3.675v-1.5ZM14.093 16c0-1.238.944-2.175 2.028-2.175v-1.5c-1.984 0-3.528 1.682-3.528 3.675h1.5Z"/></svg>