<svg width="24" height="24" viewBox="0 0 24 24" fill="none" xmlns="http://www.w3.org/2000/svg">
<path d="M14.5 2.78341H6.47003C4.43395 2.78341 2.78339 4.43397 2.78339 6.47005V17.53C2.78339 19.566 4.43395 21.2166 6.47002 21.2166H17.5299C19.566 21.2166 21.2166 19.566 21.2166 17.53V10.8543M8.31335 21.2166C8.31335 19.2476 8.85419 16.3772 10.4311 13.8433M10.4311 13.8433C7.70127 11.1135 4.1952 11.477 2.78339 12M10.4311 13.8433C11.6235 11.9272 13.4085 10.2035 16 9.20771M21 5L19 3M19 3L17 5M19 3V8.5M11 7C11 8.10457 10.1046 9 8.99999 9C7.89542 9 6.99999 8.10457 6.99999 7C6.99999 5.89543 7.89542 5 8.99999 5C10.1046 5 11 5.89543 11 7Z" stroke="#347B99" stroke-width="1.5" stroke-linecap="round" stroke-linejoin="round"/>
</svg>
