<svg width="24" height="24" viewBox="0 0 24 24" fill="none" xmlns="http://www.w3.org/2000/svg">
<path d="M12 20.2769C11.8795 20.2769 11.7673 20.2577 11.6635 20.2192C11.5596 20.1808 11.4609 20.1148 11.3673 20.0212L8.85768 17.5116C8.71281 17.3667 8.64038 17.1946 8.64038 16.9952C8.64038 16.7959 8.71795 16.6186 8.87308 16.4635C9.01153 16.3187 9.18716 16.2462 9.39998 16.2462C9.6128 16.2462 9.79164 16.3187 9.93651 16.4635L11.25 17.777V6.22307L9.91151 7.56157C9.77306 7.70004 9.60415 7.76927 9.40478 7.76927C9.20543 7.76927 9.0282 7.6917 8.87308 7.53657C8.73461 7.3917 8.66538 7.21286 8.66538 7.00004C8.66538 6.78723 8.73781 6.60839 8.88268 6.46352L11.3673 3.97892C11.4609 3.88532 11.5596 3.81929 11.6635 3.78084C11.7673 3.74238 11.8795 3.72314 12 3.72314C12.1205 3.72314 12.2327 3.74238 12.3365 3.78084C12.4404 3.81929 12.5391 3.88532 12.6327 3.97892L15.1423 6.48852C15.2871 6.63339 15.3596 6.80549 15.3596 7.00484C15.3596 7.20421 15.282 7.38145 15.1269 7.53657C14.9884 7.68144 14.8128 7.75387 14.6 7.75387C14.3872 7.75387 14.2083 7.68144 14.0635 7.53657L12.75 6.22307V17.777L14.0885 16.4385C14.2269 16.3001 14.3958 16.2308 14.5952 16.2308C14.7945 16.2308 14.9718 16.3084 15.1269 16.4635C15.2653 16.6084 15.3346 16.7872 15.3346 17C15.3346 17.2129 15.2621 17.3917 15.1173 17.5366L12.6327 20.0212C12.5391 20.1148 12.4404 20.1808 12.3365 20.2192C12.2327 20.2577 12.1205 20.2769 12 20.2769Z" fill="black"/>
</svg>
