<svg width="24" height="24" viewBox="0 0 24 24" fill="none" xmlns="http://www.w3.org/2000/svg">
<path d="M13.2884 10.75C13.0759 10.75 12.8978 10.678 12.754 10.5342C12.6103 10.3904 12.5384 10.2122 12.5384 9.99965C12.5384 9.78705 12.6103 9.60896 12.754 9.46538C12.8978 9.32179 13.0759 9.25 13.2884 9.25H16.7115C16.924 9.25 17.1021 9.3219 17.2459 9.4657C17.3896 9.60952 17.4615 9.78772 17.4615 10.0003C17.4615 10.2129 17.3896 10.391 17.2459 10.5346C17.1021 10.6782 16.924 10.75 16.7115 10.75H13.2884ZM13.2884 6.86535C13.0759 6.86535 12.8978 6.79344 12.754 6.64962C12.6103 6.50582 12.5384 6.32762 12.5384 6.11502C12.5384 5.90244 12.6103 5.72436 12.754 5.58077C12.8978 5.43717 13.0759 5.36537 13.2884 5.36537H19.7115C19.924 5.36537 20.1021 5.43728 20.2459 5.5811C20.3896 5.72492 20.4615 5.90312 20.4615 6.1157C20.4615 6.3283 20.3896 6.50639 20.2459 6.64998C20.1021 6.79356 19.924 6.86535 19.7115 6.86535H13.2884ZM8.07692 20.5C6.82822 20.5 5.76605 20.0621 4.89042 19.1865C4.01478 18.3109 3.57697 17.2487 3.57697 16C3.57697 15.2493 3.75197 14.5495 4.10197 13.9005C4.45197 13.2514 4.94363 12.7077 5.57697 12.2692V5.99997C5.57697 5.30128 5.81895 4.70993 6.30292 4.22595C6.78688 3.74198 7.37822 3.5 8.07692 3.5C8.77563 3.5 9.36697 3.74198 9.85094 4.22595C10.3349 4.70993 10.5769 5.30128 10.5769 5.99997V12.2692C11.2102 12.7077 11.7019 13.2514 12.0519 13.9005C12.4019 14.5495 12.5769 15.2493 12.5769 16C12.5769 17.2487 12.1391 18.3109 11.2634 19.1865C10.3878 20.0621 9.32563 20.5 8.07692 20.5ZM5.07692 16H11.0769C11.0769 15.5102 10.9583 15.0458 10.7211 14.6067C10.484 14.1676 10.1449 13.7872 9.70384 13.4654L9.07692 13V5.99997C9.07692 5.71664 8.98108 5.47914 8.78942 5.28747C8.59775 5.09581 8.36025 4.99997 8.07692 4.99997C7.79358 4.99997 7.55608 5.09581 7.36442 5.28747C7.17275 5.47914 7.07692 5.71664 7.07692 5.99997V13L6.45002 13.4654C6.00898 13.7872 5.66987 14.1676 5.43269 14.6067C5.19551 15.0458 5.07692 15.5102 5.07692 16Z" fill="black"/>
</svg>
